<svg width="1408" height="614" viewBox="0 0 1408 614" fill="none" xmlns="http://www.w3.org/2000/svg">
<path d="M0 16C0 7.16343 7.16344 0 16 0H1392C1400.84 0 1408 7.16344 1408 16V598C1408 606.837 1400.84 614 1392 614H16C7.16343 614 0 606.837 0 598V16Z" fill="white"/>
<g filter="url(#filter0_d)">
<circle cx="392" cy="168" r="8" fill="#635BFF"/>
<path fill-rule="evenodd" clip-rule="evenodd" d="M392.638 173.102H391.362V171.827H392.638V173.102ZM392.862 169.054L392.75 169.15C392.686 169.198 392.638 169.309 392.638 169.405V170.568H391.362V169.405C391.362 168.911 391.585 168.449 391.952 168.146L392.064 168.05C393.181 167.158 393.723 166.695 393.723 165.899C393.725 165.442 393.544 165.003 393.221 164.68C392.897 164.356 392.458 164.176 392 164.177C391.011 164.177 390.277 164.91 390.277 165.899H389C389 164.225 390.324 162.902 392 162.902C392.796 162.901 393.56 163.217 394.122 163.779C394.685 164.341 395.001 165.104 395 165.899C395 167.349 394.011 168.146 392.862 169.054Z" fill="white"/>
</g>
<path d="M276.474 174.261C275.904 174.261 275.379 174.153 274.899 173.937C274.425 173.721 274.023 173.415 273.693 173.019C273.369 172.617 273.138 172.149 273 171.615L274.323 171.3C274.395 171.618 274.533 171.906 274.737 172.164C274.941 172.422 275.193 172.626 275.493 172.776C275.793 172.92 276.117 172.992 276.465 172.992C276.831 172.992 277.182 172.905 277.518 172.731C277.854 172.557 278.115 172.296 278.301 171.948C278.421 171.714 278.493 171.462 278.517 171.192C278.547 170.922 278.562 170.529 278.562 170.013V161.04H279.894V170.013V170.508C279.894 170.994 279.867 171.393 279.813 171.705C279.765 172.011 279.651 172.32 279.471 172.632C279.165 173.172 278.751 173.58 278.229 173.856C277.707 174.126 277.122 174.261 276.474 174.261ZM290.782 164.28V174H289.594V172.65C289.234 173.172 288.775 173.568 288.217 173.838C287.659 174.108 287.029 174.243 286.327 174.243C285.409 174.243 284.659 174.021 284.077 173.577C283.495 173.133 283.075 172.563 282.817 171.867C282.559 171.165 282.43 170.418 282.43 169.626V164.28H283.762V169.239C283.762 170.385 283.99 171.297 284.446 171.975C284.902 172.647 285.613 172.983 286.579 172.983C287.503 172.983 288.214 172.674 288.712 172.056C289.21 171.438 289.459 170.574 289.459 169.464V164.28H290.782ZM296.924 174.261C296.168 174.261 295.496 174.15 294.908 173.928C294.32 173.706 293.84 173.388 293.468 172.974C293.102 172.554 292.865 172.053 292.757 171.471L294.107 171.246C294.245 171.804 294.572 172.245 295.088 172.569C295.604 172.893 296.24 173.055 296.996 173.055C297.734 173.055 298.316 172.902 298.742 172.596C299.168 172.284 299.381 171.861 299.381 171.327C299.381 171.015 299.309 170.769 299.165 170.589C299.027 170.403 298.763 170.232 298.373 170.076C297.983 169.92 297.359 169.725 296.501 169.491C295.607 169.251 294.914 169.011 294.422 168.771C293.93 168.525 293.579 168.249 293.369 167.943C293.159 167.631 293.054 167.244 293.054 166.782C293.054 166.236 293.207 165.753 293.513 165.333C293.825 164.913 294.26 164.589 294.818 164.361C295.376 164.127 296.018 164.01 296.744 164.01C297.47 164.01 298.124 164.13 298.706 164.37C299.288 164.604 299.756 164.937 300.11 165.369C300.464 165.795 300.674 166.287 300.74 166.845L299.39 167.088C299.294 166.506 299 166.05 298.508 165.72C298.016 165.384 297.392 165.216 296.636 165.216C296.198 165.216 295.808 165.279 295.466 165.405C295.13 165.531 294.866 165.708 294.674 165.936C294.488 166.164 294.395 166.425 294.395 166.719C294.395 166.989 294.473 167.214 294.629 167.394C294.791 167.568 295.07 167.736 295.466 167.898C295.868 168.054 296.459 168.231 297.239 168.429C298.151 168.663 298.856 168.906 299.354 169.158C299.858 169.404 300.218 169.698 300.434 170.04C300.65 170.376 300.758 170.799 300.758 171.309C300.758 171.915 300.605 172.44 300.299 172.884C299.993 173.328 299.552 173.67 298.976 173.91C298.4 174.144 297.716 174.261 296.924 174.261ZM305.067 170.427V170.958C305.067 171.258 305.079 171.501 305.103 171.687C305.127 171.867 305.181 172.029 305.265 172.173C305.409 172.449 305.616 172.647 305.886 172.767C306.156 172.887 306.495 172.947 306.903 172.947C307.245 172.947 307.626 172.911 308.046 172.839V174C307.566 174.096 307.119 174.144 306.705 174.144C306.087 174.144 305.547 174.039 305.085 173.829C304.623 173.619 304.281 173.289 304.059 172.839C303.933 172.581 303.849 172.317 303.807 172.047C303.771 171.777 303.753 171.441 303.753 171.039V170.481V165.414H301.674V164.28H303.753V161.58H305.067V164.28H308.046V165.414H305.067V170.427ZM310.141 160.95H311.464V162.435H310.141V160.95ZM310.141 164.28H311.464V174H310.141V164.28ZM317.951 161.886C317.441 161.886 317.063 162.012 316.817 162.264C316.571 162.51 316.448 162.894 316.448 163.416V164.28H319.103V165.414H316.448V174H315.125V165.414H313.442V164.28H315.125V163.56C315.125 163.11 315.164 162.717 315.242 162.381C315.326 162.045 315.488 161.745 315.728 161.481C315.992 161.193 316.298 161.004 316.646 160.914C316.994 160.818 317.399 160.77 317.861 160.77H319.103V161.886H317.951ZM320.993 160.95H322.316V162.435H320.993V160.95ZM320.993 164.28H322.316V174H320.993V164.28ZM329.04 174.27C328.08 174.27 327.258 174.054 326.574 173.622C325.896 173.19 325.377 172.587 325.017 171.813C324.663 171.039 324.48 170.148 324.468 169.14C324.48 168.114 324.666 167.217 325.026 166.449C325.386 165.675 325.908 165.075 326.592 164.649C327.276 164.223 328.095 164.01 329.049 164.01C329.697 164.01 330.297 164.118 330.849 164.334C331.401 164.55 331.872 164.862 332.262 165.27C332.652 165.672 332.937 166.149 333.117 166.701L331.821 167.115C331.593 166.539 331.23 166.089 330.732 165.765C330.24 165.441 329.676 165.279 329.04 165.279C328.002 165.279 327.216 165.627 326.682 166.323C326.154 167.019 325.884 167.958 325.872 169.14C325.884 170.334 326.16 171.276 326.7 171.966C327.24 172.656 328.02 173.001 329.04 173.001C329.7 173.001 330.261 172.851 330.723 172.551C331.191 172.245 331.545 171.801 331.785 171.219L333.117 171.615C332.751 172.479 332.22 173.139 331.524 173.595C330.828 174.045 330 174.27 329.04 174.27ZM342.276 165.954C342.468 166.422 342.564 167.091 342.564 167.961V174H341.385V172.389C341.007 173.007 340.503 173.475 339.873 173.793C339.243 174.111 338.514 174.27 337.686 174.27C336.978 174.27 336.372 174.141 335.868 173.883C335.37 173.625 334.995 173.277 334.743 172.839C334.491 172.401 334.365 171.918 334.365 171.39C334.365 170.634 334.584 170.025 335.022 169.563C335.46 169.101 336.066 168.768 336.84 168.564C337.314 168.45 337.842 168.348 338.424 168.258C339.012 168.168 339.69 168.072 340.458 167.97L341.268 167.862C341.256 166.968 341.046 166.311 340.638 165.891C340.236 165.471 339.582 165.261 338.676 165.261C337.992 165.261 337.422 165.414 336.966 165.72C336.516 166.026 336.201 166.497 336.021 167.133L334.734 166.755C334.962 165.879 335.412 165.204 336.084 164.73C336.762 164.25 337.632 164.01 338.694 164.01C339.582 164.01 340.335 164.178 340.953 164.514C341.577 164.85 342.018 165.33 342.276 165.954ZM337.839 173.127C338.439 173.127 338.973 173.019 339.441 172.803C339.909 172.581 340.284 172.278 340.566 171.894C340.854 171.504 341.04 171.063 341.124 170.571C341.208 170.199 341.25 169.683 341.25 169.023C341.016 169.047 340.848 169.068 340.746 169.086C339.93 169.182 339.267 169.269 338.757 169.347C338.247 169.419 337.785 169.512 337.371 169.626C336.249 169.956 335.688 170.544 335.688 171.39C335.688 171.69 335.76 171.972 335.904 172.236C336.054 172.5 336.291 172.716 336.615 172.884C336.939 173.046 337.347 173.127 337.839 173.127ZM347.219 170.427V170.958C347.219 171.258 347.231 171.501 347.255 171.687C347.279 171.867 347.333 172.029 347.417 172.173C347.561 172.449 347.768 172.647 348.038 172.767C348.308 172.887 348.647 172.947 349.055 172.947C349.397 172.947 349.778 172.911 350.198 172.839V174C349.718 174.096 349.271 174.144 348.857 174.144C348.239 174.144 347.699 174.039 347.237 173.829C346.775 173.619 346.433 173.289 346.211 172.839C346.085 172.581 346.001 172.317 345.959 172.047C345.923 171.777 345.905 171.441 345.905 171.039V170.481V165.414H343.826V164.28H345.905V161.58H347.219V164.28H350.198V165.414H347.219V170.427ZM352.294 160.95H353.617V162.435H352.294V160.95ZM352.294 164.28H353.617V174H352.294V164.28ZM360.374 174.27C359.426 174.27 358.604 174.054 357.908 173.622C357.218 173.184 356.69 172.578 356.324 171.804C355.958 171.03 355.775 170.139 355.775 169.131C355.775 168.117 355.961 167.223 356.333 166.449C356.705 165.675 357.236 165.075 357.926 164.649C358.622 164.223 359.438 164.01 360.374 164.01C361.328 164.01 362.15 164.226 362.84 164.658C363.536 165.09 364.067 165.693 364.433 166.467C364.799 167.241 364.982 168.129 364.982 169.131C364.982 170.151 364.796 171.048 364.424 171.822C364.058 172.596 363.527 173.199 362.831 173.631C362.141 174.057 361.322 174.27 360.374 174.27ZM360.374 173.001C361.076 173.001 361.667 172.842 362.147 172.524C362.627 172.2 362.984 171.75 363.218 171.174C363.458 170.592 363.578 169.911 363.578 169.131C363.578 167.931 363.305 166.989 362.759 166.305C362.219 165.621 361.424 165.279 360.374 165.279C359.318 165.279 358.52 165.627 357.98 166.323C357.446 167.013 357.179 167.949 357.179 169.131C357.179 169.917 357.299 170.601 357.539 171.183C357.785 171.765 358.145 172.215 358.619 172.533C359.099 172.845 359.684 173.001 360.374 173.001ZM371.422 164.037C372.34 164.037 373.09 164.259 373.672 164.703C374.254 165.147 374.674 165.72 374.932 166.422C375.19 167.118 375.319 167.862 375.319 168.654V174H373.987V169.041C373.987 167.895 373.759 166.986 373.303 166.314C372.847 165.636 372.136 165.297 371.17 165.297C370.246 165.297 369.535 165.606 369.037 166.224C368.539 166.842 368.29 167.706 368.29 168.816V174H366.958V164.28H368.155V165.63C368.515 165.108 368.974 164.712 369.532 164.442C370.09 164.172 370.72 164.037 371.422 164.037Z" fill="#7483AB"/>
<path d="M274.96 100.84H277.928L287.854 115.82V100.84H290.822V121H287.854L277.928 106.006V121H274.96V100.84ZM297.026 114.266C297.147 115.675 297.572 116.763 298.3 117.528C299.028 118.284 300.026 118.662 301.296 118.662C302.201 118.662 302.99 118.457 303.662 118.046C304.334 117.635 304.856 117.038 305.23 116.254L308.1 117.164C307.521 118.499 306.634 119.544 305.44 120.3C304.245 121.047 302.91 121.42 301.436 121.42C299.942 121.42 298.626 121.093 297.488 120.44C296.349 119.777 295.462 118.853 294.828 117.668C294.202 116.473 293.89 115.106 293.89 113.566C293.89 111.933 294.198 110.505 294.814 109.282C295.43 108.059 296.298 107.117 297.418 106.454C298.538 105.791 299.83 105.46 301.296 105.46C302.742 105.46 303.993 105.782 305.048 106.426C306.102 107.07 306.91 107.994 307.47 109.198C308.039 110.393 308.324 111.807 308.324 113.44C308.324 113.617 308.314 113.893 308.296 114.266H297.026ZM301.408 108.05C300.166 108.05 299.182 108.386 298.454 109.058C297.735 109.721 297.282 110.696 297.096 111.984H305.3C305.141 110.649 304.74 109.66 304.096 109.016C303.461 108.372 302.565 108.05 301.408 108.05ZM309.49 105.866L312.388 105.88L315.552 116.254L318.744 105.88H321.264L324.456 116.254L327.62 105.88H330.504L325.884 121H323.532L320.004 110.052L316.462 121H314.11L309.49 105.866ZM346.764 100.84C347.324 100.84 347.842 100.877 348.318 100.952C349.42 101.12 350.348 101.498 351.104 102.086C351.86 102.665 352.425 103.402 352.798 104.298C353.181 105.194 353.372 106.193 353.372 107.294C353.372 108.405 353.181 109.408 352.798 110.304C352.416 111.191 351.846 111.928 351.09 112.516C350.334 113.095 349.41 113.473 348.318 113.65C347.842 113.725 347.324 113.762 346.764 113.762H341.542V121H338.616V100.84H346.764ZM346.652 110.99C347.138 110.99 347.562 110.948 347.926 110.864C348.757 110.659 349.373 110.22 349.774 109.548C350.185 108.876 350.39 108.125 350.39 107.294C350.39 106.463 350.185 105.712 349.774 105.04C349.373 104.368 348.757 103.934 347.926 103.738C347.581 103.645 347.156 103.598 346.652 103.598H341.542V110.99H346.652ZM360.175 106.734C360.595 106.417 361.08 106.179 361.631 106.02C362.182 105.861 362.742 105.782 363.311 105.782C363.619 105.782 363.96 105.815 364.333 105.88V108.624C364.016 108.531 363.647 108.484 363.227 108.484C362.835 108.484 362.448 108.535 362.065 108.638C361.692 108.731 361.346 108.881 361.029 109.086C359.76 109.898 359.125 111.326 359.125 113.37V121H356.171V105.88H358.775V108.288C359.148 107.625 359.615 107.107 360.175 106.734ZM373.292 121.42C371.808 121.42 370.506 121.084 369.386 120.412C368.266 119.731 367.402 118.788 366.796 117.584C366.189 116.371 365.886 114.985 365.886 113.426C365.886 111.858 366.194 110.472 366.81 109.268C367.426 108.064 368.294 107.131 369.414 106.468C370.534 105.796 371.826 105.46 373.292 105.46C374.776 105.46 376.078 105.796 377.198 106.468C378.327 107.14 379.195 108.083 379.802 109.296C380.408 110.5 380.712 111.877 380.712 113.426C380.712 114.994 380.404 116.385 379.788 117.598C379.181 118.802 378.318 119.74 377.198 120.412C376.078 121.084 374.776 121.42 373.292 121.42ZM373.292 118.662C374.692 118.662 375.76 118.191 376.498 117.248C377.235 116.296 377.604 115.022 377.604 113.426C377.604 111.811 377.235 110.542 376.498 109.618C375.76 108.685 374.692 108.218 373.292 108.218C371.873 108.218 370.8 108.685 370.072 109.618C369.353 110.551 368.994 111.821 368.994 113.426C368.994 115.05 369.362 116.329 370.1 117.262C370.837 118.195 371.901 118.662 373.292 118.662ZM390.83 105.46C392.221 105.46 393.434 105.805 394.47 106.496C395.515 107.177 396.318 108.125 396.878 109.338C397.447 110.542 397.732 111.905 397.732 113.426C397.732 114.938 397.452 116.301 396.892 117.514C396.332 118.727 395.534 119.684 394.498 120.384C393.462 121.075 392.258 121.42 390.886 121.42C389.225 121.42 387.834 120.925 386.714 119.936V127.72H383.774V105.88H386.378V107.238C386.929 106.669 387.577 106.23 388.324 105.922C389.071 105.614 389.906 105.46 390.83 105.46ZM390.48 118.774C391.385 118.774 392.146 118.541 392.762 118.074C393.387 117.607 393.854 116.973 394.162 116.17C394.47 115.367 394.624 114.453 394.624 113.426C394.624 112.409 394.47 111.499 394.162 110.696C393.854 109.893 393.383 109.263 392.748 108.806C392.113 108.339 391.325 108.106 390.382 108.106C389.047 108.106 388.044 108.587 387.372 109.548C386.709 110.5 386.378 111.793 386.378 113.426C386.378 115.078 386.714 116.385 387.386 117.346C388.067 118.298 389.099 118.774 390.48 118.774ZM407.389 121.42C405.905 121.42 404.603 121.084 403.483 120.412C402.363 119.731 401.5 118.788 400.893 117.584C400.287 116.371 399.983 114.985 399.983 113.426C399.983 111.858 400.291 110.472 400.907 109.268C401.523 108.064 402.391 107.131 403.511 106.468C404.631 105.796 405.924 105.46 407.389 105.46C408.873 105.46 410.175 105.796 411.295 106.468C412.425 107.14 413.293 108.083 413.899 109.296C414.506 110.5 414.809 111.877 414.809 113.426C414.809 114.994 414.501 116.385 413.885 117.598C413.279 118.802 412.415 119.74 411.295 120.412C410.175 121.084 408.873 121.42 407.389 121.42ZM407.389 118.662C408.789 118.662 409.858 118.191 410.595 117.248C411.333 116.296 411.701 115.022 411.701 113.426C411.701 111.811 411.333 110.542 410.595 109.618C409.858 108.685 408.789 108.218 407.389 108.218C405.971 108.218 404.897 108.685 404.169 109.618C403.451 110.551 403.091 111.821 403.091 113.426C403.091 115.05 403.46 116.329 404.197 117.262C404.935 118.195 405.999 118.662 407.389 118.662ZM423.394 121.406C421.556 121.406 420.058 121 418.9 120.188C417.743 119.376 417.034 118.233 416.772 116.758L419.768 116.296C419.955 117.089 420.384 117.71 421.056 118.158C421.738 118.606 422.582 118.83 423.59 118.83C424.505 118.83 425.219 118.643 425.732 118.27C426.255 117.897 426.516 117.383 426.516 116.73C426.516 116.329 426.423 116.016 426.236 115.792C426.05 115.559 425.681 115.339 425.13 115.134C424.589 114.929 423.698 114.658 422.456 114.322C421.131 113.977 420.095 113.613 419.348 113.23C418.611 112.847 418.079 112.404 417.752 111.9C417.426 111.387 417.262 110.752 417.262 109.996C417.262 109.091 417.505 108.297 417.99 107.616C418.476 106.925 419.162 106.393 420.048 106.02C420.935 105.647 421.966 105.46 423.142 105.46C424.29 105.46 425.322 105.642 426.236 106.006C427.151 106.37 427.884 106.888 428.434 107.56C428.994 108.232 429.33 109.011 429.442 109.898L426.446 110.444C426.334 109.697 425.966 109.109 425.34 108.68C424.724 108.251 423.922 108.036 422.932 108.036C422.111 108.036 421.448 108.204 420.944 108.54C420.44 108.867 420.188 109.301 420.188 109.842C420.188 110.187 420.296 110.472 420.51 110.696C420.725 110.92 421.126 111.139 421.714 111.354C422.302 111.569 423.203 111.83 424.416 112.138C425.704 112.465 426.712 112.829 427.44 113.23C428.178 113.622 428.71 114.089 429.036 114.63C429.363 115.162 429.526 115.825 429.526 116.618C429.526 117.607 429.279 118.461 428.784 119.18C428.299 119.899 427.594 120.449 426.67 120.832C425.756 121.215 424.664 121.406 423.394 121.406ZM444.398 108.344C444.613 108.801 444.753 109.291 444.818 109.814C444.893 110.327 444.93 110.953 444.93 111.69V121H442.34V118.802C441.715 119.689 440.954 120.347 440.058 120.776C439.171 121.205 438.117 121.42 436.894 121.42C435.811 121.42 434.887 121.219 434.122 120.818C433.357 120.407 432.773 119.861 432.372 119.18C431.98 118.489 431.784 117.724 431.784 116.884C431.784 114.653 432.974 113.16 435.354 112.404C436.073 112.189 436.885 112.007 437.79 111.858C438.705 111.699 439.969 111.508 441.584 111.284L442.046 111.228C441.999 110.164 441.71 109.389 441.178 108.904C440.646 108.409 439.797 108.162 438.63 108.162C437.781 108.162 437.034 108.358 436.39 108.75C435.746 109.142 435.303 109.739 435.06 110.542L432.33 109.702C432.703 108.367 433.422 107.327 434.486 106.58C435.559 105.833 436.95 105.46 438.658 105.46C440.049 105.46 441.239 105.698 442.228 106.174C443.217 106.65 443.941 107.373 444.398 108.344ZM437.412 119.026C438.205 119.026 438.905 118.886 439.512 118.606C440.119 118.317 440.604 117.943 440.968 117.486C441.341 117.029 441.589 116.543 441.71 116.03C441.897 115.489 441.999 114.7 442.018 113.664L441.654 113.72C440.291 113.916 439.269 114.075 438.588 114.196C437.916 114.317 437.309 114.457 436.768 114.616C436.115 114.84 435.601 115.129 435.228 115.484C434.864 115.839 434.682 116.296 434.682 116.856C434.682 117.481 434.911 117.999 435.368 118.41C435.835 118.821 436.516 119.026 437.412 119.026ZM448.845 100.42H451.771V121H448.845V100.42Z" fill="#20232C"/>
<g filter="url(#filter1_i)">
<rect x="273" y="193" width="862" height="104" rx="8" fill="white"/>
</g>
<rect x="274" y="194" width="860" height="102" rx="7" stroke="#EFF1F7" stroke-width="2"/>
<path d="M295.26 209.04H303.36V210.309H296.583V214.791H302.28V216.06H296.583V220.731H303.36V222H295.26V209.04ZM309.981 212.037C310.899 212.037 311.649 212.259 312.231 212.703C312.813 213.147 313.233 213.72 313.491 214.422C313.749 215.118 313.878 215.862 313.878 216.654V222H312.546V217.041C312.546 215.895 312.318 214.986 311.862 214.314C311.406 213.636 310.695 213.297 309.729 213.297C308.805 213.297 308.094 213.606 307.596 214.224C307.098 214.842 306.849 215.706 306.849 216.816V222H305.517V212.28H306.714V213.63C307.074 213.108 307.533 212.712 308.091 212.442C308.649 212.172 309.279 212.037 309.981 212.037ZM318.526 218.427V218.958C318.526 219.258 318.538 219.501 318.562 219.687C318.586 219.867 318.64 220.029 318.724 220.173C318.868 220.449 319.075 220.647 319.345 220.767C319.615 220.887 319.954 220.947 320.362 220.947C320.704 220.947 321.085 220.911 321.505 220.839V222C321.025 222.096 320.578 222.144 320.164 222.144C319.546 222.144 319.006 222.039 318.544 221.829C318.082 221.619 317.74 221.289 317.518 220.839C317.392 220.581 317.308 220.317 317.266 220.047C317.23 219.777 317.212 219.441 317.212 219.039V218.481V213.414H315.133V212.28H317.212V209.58H318.526V212.28H321.505V213.414H318.526V218.427ZM323.942 217.509C323.996 218.625 324.299 219.486 324.851 220.092C325.403 220.698 326.162 221.001 327.128 221.001C327.818 221.001 328.424 220.842 328.946 220.524C329.468 220.2 329.879 219.735 330.179 219.129L331.412 219.606C331.028 220.452 330.464 221.109 329.72 221.577C328.976 222.039 328.13 222.27 327.182 222.27C326.246 222.27 325.427 222.06 324.725 221.64C324.023 221.22 323.48 220.629 323.096 219.867C322.718 219.099 322.529 218.205 322.529 217.185C322.529 216.135 322.715 215.22 323.087 214.44C323.465 213.66 323.999 213.06 324.689 212.64C325.385 212.22 326.198 212.01 327.128 212.01C328.058 212.01 328.856 212.22 329.522 212.64C330.194 213.054 330.707 213.654 331.061 214.44C331.421 215.22 331.601 216.15 331.601 217.23V217.509H323.942ZM327.164 213.225C326.234 213.225 325.493 213.498 324.941 214.044C324.395 214.59 324.071 215.376 323.969 216.402H330.215C330.119 215.352 329.813 214.56 329.297 214.026C328.781 213.492 328.07 213.225 327.164 213.225ZM335.542 212.919C335.812 212.679 336.133 212.499 336.505 212.379C336.883 212.259 337.264 212.199 337.648 212.199C337.906 212.199 338.149 212.226 338.377 212.28V213.522C338.119 213.462 337.87 213.432 337.63 213.432C337.006 213.432 336.481 213.609 336.055 213.963C335.611 214.311 335.311 214.755 335.155 215.295C334.999 215.835 334.921 216.453 334.921 217.149V222H333.598V212.28H334.786V213.819C334.996 213.447 335.248 213.147 335.542 212.919ZM344.237 208.95H345.551V210.435H344.237V208.95ZM342.797 225.042C343.757 225.042 344.237 224.553 344.237 223.575V212.28H345.551V223.908C345.551 224.718 345.356 225.321 344.966 225.717C344.582 226.119 343.991 226.32 343.193 226.32H342.248V225.042H342.797ZM356.377 212.28V222H355.189V220.65C354.829 221.172 354.37 221.568 353.812 221.838C353.254 222.108 352.624 222.243 351.922 222.243C351.004 222.243 350.254 222.021 349.672 221.577C349.09 221.133 348.67 220.563 348.412 219.867C348.154 219.165 348.025 218.418 348.025 217.626V212.28H349.357V217.239C349.357 218.385 349.585 219.297 350.041 219.975C350.497 220.647 351.208 220.983 352.174 220.983C353.098 220.983 353.809 220.674 354.307 220.056C354.805 219.438 355.054 218.574 355.054 217.464V212.28H356.377ZM362.52 222.261C361.764 222.261 361.092 222.15 360.504 221.928C359.916 221.706 359.436 221.388 359.064 220.974C358.698 220.554 358.461 220.053 358.353 219.471L359.703 219.246C359.841 219.804 360.168 220.245 360.684 220.569C361.2 220.893 361.836 221.055 362.592 221.055C363.33 221.055 363.912 220.902 364.338 220.596C364.764 220.284 364.977 219.861 364.977 219.327C364.977 219.015 364.905 218.769 364.761 218.589C364.623 218.403 364.359 218.232 363.969 218.076C363.579 217.92 362.955 217.725 362.097 217.491C361.203 217.251 360.51 217.011 360.018 216.771C359.526 216.525 359.175 216.249 358.965 215.943C358.755 215.631 358.65 215.244 358.65 214.782C358.65 214.236 358.803 213.753 359.109 213.333C359.421 212.913 359.856 212.589 360.414 212.361C360.972 212.127 361.614 212.01 362.34 212.01C363.066 212.01 363.72 212.13 364.302 212.37C364.884 212.604 365.352 212.937 365.706 213.369C366.06 213.795 366.27 214.287 366.336 214.845L364.986 215.088C364.89 214.506 364.596 214.05 364.104 213.72C363.612 213.384 362.988 213.216 362.232 213.216C361.794 213.216 361.404 213.279 361.062 213.405C360.726 213.531 360.462 213.708 360.27 213.936C360.084 214.164 359.991 214.425 359.991 214.719C359.991 214.989 360.069 215.214 360.225 215.394C360.387 215.568 360.666 215.736 361.062 215.898C361.464 216.054 362.055 216.231 362.835 216.429C363.747 216.663 364.452 216.906 364.95 217.158C365.454 217.404 365.814 217.698 366.03 218.04C366.246 218.376 366.354 218.799 366.354 219.309C366.354 219.915 366.201 220.44 365.895 220.884C365.589 221.328 365.148 221.67 364.572 221.91C363.996 222.144 363.312 222.261 362.52 222.261ZM370.663 218.427V218.958C370.663 219.258 370.675 219.501 370.699 219.687C370.723 219.867 370.777 220.029 370.861 220.173C371.005 220.449 371.212 220.647 371.482 220.767C371.752 220.887 372.091 220.947 372.499 220.947C372.841 220.947 373.222 220.911 373.642 220.839V222C373.162 222.096 372.715 222.144 372.301 222.144C371.683 222.144 371.143 222.039 370.681 221.829C370.219 221.619 369.877 221.289 369.655 220.839C369.529 220.581 369.445 220.317 369.403 220.047C369.367 219.777 369.349 219.441 369.349 219.039V218.481V213.414H367.27V212.28H369.349V209.58H370.663V212.28H373.642V213.414H370.663V218.427ZM375.737 208.95H377.06V210.435H375.737V208.95ZM375.737 212.28H377.06V222H375.737V212.28ZM383.547 209.886C383.037 209.886 382.659 210.012 382.413 210.264C382.167 210.51 382.044 210.894 382.044 211.416V212.28H384.699V213.414H382.044V222H380.721V213.414H379.038V212.28H380.721V211.56C380.721 211.11 380.76 210.717 380.838 210.381C380.922 210.045 381.084 209.745 381.324 209.481C381.588 209.193 381.894 209.004 382.242 208.914C382.59 208.818 382.995 208.77 383.457 208.77H384.699V209.886H383.547ZM386.589 208.95H387.912V210.435H386.589V208.95ZM386.589 212.28H387.912V222H386.589V212.28ZM394.636 222.27C393.676 222.27 392.854 222.054 392.17 221.622C391.492 221.19 390.973 220.587 390.613 219.813C390.259 219.039 390.076 218.148 390.064 217.14C390.076 216.114 390.262 215.217 390.622 214.449C390.982 213.675 391.504 213.075 392.188 212.649C392.872 212.223 393.691 212.01 394.645 212.01C395.293 212.01 395.893 212.118 396.445 212.334C396.997 212.55 397.468 212.862 397.858 213.27C398.248 213.672 398.533 214.149 398.713 214.701L397.417 215.115C397.189 214.539 396.826 214.089 396.328 213.765C395.836 213.441 395.272 213.279 394.636 213.279C393.598 213.279 392.812 213.627 392.278 214.323C391.75 215.019 391.48 215.958 391.468 217.14C391.48 218.334 391.756 219.276 392.296 219.966C392.836 220.656 393.616 221.001 394.636 221.001C395.296 221.001 395.857 220.851 396.319 220.551C396.787 220.245 397.141 219.801 397.381 219.219L398.713 219.615C398.347 220.479 397.816 221.139 397.12 221.595C396.424 222.045 395.596 222.27 394.636 222.27ZM407.871 213.954C408.063 214.422 408.159 215.091 408.159 215.961V222H406.98V220.389C406.602 221.007 406.098 221.475 405.468 221.793C404.838 222.111 404.109 222.27 403.281 222.27C402.573 222.27 401.967 222.141 401.463 221.883C400.965 221.625 400.59 221.277 400.338 220.839C400.086 220.401 399.96 219.918 399.96 219.39C399.96 218.634 400.179 218.025 400.617 217.563C401.055 217.101 401.661 216.768 402.435 216.564C402.909 216.45 403.437 216.348 404.019 216.258C404.607 216.168 405.285 216.072 406.053 215.97L406.863 215.862C406.851 214.968 406.641 214.311 406.233 213.891C405.831 213.471 405.177 213.261 404.271 213.261C403.587 213.261 403.017 213.414 402.561 213.72C402.111 214.026 401.796 214.497 401.616 215.133L400.329 214.755C400.557 213.879 401.007 213.204 401.679 212.73C402.357 212.25 403.227 212.01 404.289 212.01C405.177 212.01 405.93 212.178 406.548 212.514C407.172 212.85 407.613 213.33 407.871 213.954ZM403.434 221.127C404.034 221.127 404.568 221.019 405.036 220.803C405.504 220.581 405.879 220.278 406.161 219.894C406.449 219.504 406.635 219.063 406.719 218.571C406.803 218.199 406.845 217.683 406.845 217.023C406.611 217.047 406.443 217.068 406.341 217.086C405.525 217.182 404.862 217.269 404.352 217.347C403.842 217.419 403.38 217.512 402.966 217.626C401.844 217.956 401.283 218.544 401.283 219.39C401.283 219.69 401.355 219.972 401.499 220.236C401.649 220.5 401.886 220.716 402.21 220.884C402.534 221.046 402.942 221.127 403.434 221.127ZM412.815 218.427V218.958C412.815 219.258 412.827 219.501 412.851 219.687C412.875 219.867 412.929 220.029 413.013 220.173C413.157 220.449 413.364 220.647 413.634 220.767C413.904 220.887 414.243 220.947 414.651 220.947C414.993 220.947 415.374 220.911 415.794 220.839V222C415.314 222.096 414.867 222.144 414.453 222.144C413.835 222.144 413.295 222.039 412.833 221.829C412.371 221.619 412.029 221.289 411.807 220.839C411.681 220.581 411.597 220.317 411.555 220.047C411.519 219.777 411.501 219.441 411.501 219.039V218.481V213.414H409.422V212.28H411.501V209.58H412.815V212.28H415.794V213.414H412.815V218.427ZM417.889 208.95H419.212V210.435H417.889V208.95ZM417.889 212.28H419.212V222H417.889V212.28ZM425.969 222.27C425.021 222.27 424.199 222.054 423.503 221.622C422.813 221.184 422.285 220.578 421.919 219.804C421.553 219.03 421.37 218.139 421.37 217.131C421.37 216.117 421.556 215.223 421.928 214.449C422.3 213.675 422.831 213.075 423.521 212.649C424.217 212.223 425.033 212.01 425.969 212.01C426.923 212.01 427.745 212.226 428.435 212.658C429.131 213.09 429.662 213.693 430.028 214.467C430.394 215.241 430.577 216.129 430.577 217.131C430.577 218.151 430.391 219.048 430.019 219.822C429.653 220.596 429.122 221.199 428.426 221.631C427.736 222.057 426.917 222.27 425.969 222.27ZM425.969 221.001C426.671 221.001 427.262 220.842 427.742 220.524C428.222 220.2 428.579 219.75 428.813 219.174C429.053 218.592 429.173 217.911 429.173 217.131C429.173 215.931 428.9 214.989 428.354 214.305C427.814 213.621 427.019 213.279 425.969 213.279C424.913 213.279 424.115 213.627 423.575 214.323C423.041 215.013 422.774 215.949 422.774 217.131C422.774 217.917 422.894 218.601 423.134 219.183C423.38 219.765 423.74 220.215 424.214 220.533C424.694 220.845 425.279 221.001 425.969 221.001ZM437.018 212.037C437.936 212.037 438.686 212.259 439.268 212.703C439.85 213.147 440.27 213.72 440.528 214.422C440.786 215.118 440.915 215.862 440.915 216.654V222H439.583V217.041C439.583 215.895 439.355 214.986 438.899 214.314C438.443 213.636 437.732 213.297 436.766 213.297C435.842 213.297 435.131 213.606 434.633 214.224C434.135 214.842 433.886 215.706 433.886 216.816V222H432.554V212.28H433.751V213.63C434.111 213.108 434.57 212.712 435.128 212.442C435.686 212.172 436.316 212.037 437.018 212.037Z" fill="#AAB2C4"/>
<path d="M273.461 65.849L272.741 66.551L268.52 62.33L272.741 58.109L273.461 58.811L270.509 61.763H281.498V62.897H270.509L273.461 65.849ZM295.973 61.124C296.657 61.418 297.185 61.847 297.557 62.411C297.935 62.969 298.124 63.62 298.124 64.364C298.124 65.102 297.965 65.747 297.647 66.299C297.329 66.845 296.882 67.265 296.306 67.559C295.73 67.853 295.061 68 294.299 68H288.881V55.04H293.885C294.593 55.04 295.22 55.19 295.766 55.49C296.312 55.784 296.735 56.186 297.035 56.696C297.341 57.206 297.494 57.767 297.494 58.379C297.494 58.967 297.356 59.504 297.08 59.99C296.81 60.476 296.441 60.854 295.973 61.124ZM290.213 60.566H293.876C294.29 60.566 294.668 60.473 295.01 60.287C295.352 60.095 295.622 59.831 295.82 59.495C296.024 59.159 296.126 58.781 296.126 58.361C296.126 57.959 296.03 57.602 295.838 57.29C295.646 56.972 295.379 56.726 295.037 56.552C294.695 56.378 294.308 56.291 293.876 56.291H290.213V60.566ZM293.975 66.731C294.503 66.731 294.977 66.638 295.397 66.452C295.817 66.26 296.147 65.987 296.387 65.633C296.633 65.279 296.756 64.862 296.756 64.382C296.756 63.908 296.645 63.476 296.423 63.086C296.201 62.696 295.898 62.387 295.514 62.159C295.13 61.931 294.698 61.817 294.218 61.817H290.213V66.731H293.975ZM307.291 59.954C307.483 60.422 307.579 61.091 307.579 61.961V68H306.4V66.389C306.022 67.007 305.518 67.475 304.888 67.793C304.258 68.111 303.529 68.27 302.701 68.27C301.993 68.27 301.387 68.141 300.883 67.883C300.385 67.625 300.01 67.277 299.758 66.839C299.506 66.401 299.38 65.918 299.38 65.39C299.38 64.634 299.599 64.025 300.037 63.563C300.475 63.101 301.081 62.768 301.855 62.564C302.329 62.45 302.857 62.348 303.439 62.258C304.027 62.168 304.705 62.072 305.473 61.97L306.283 61.862C306.271 60.968 306.061 60.311 305.653 59.891C305.251 59.471 304.597 59.261 303.691 59.261C303.007 59.261 302.437 59.414 301.981 59.72C301.531 60.026 301.216 60.497 301.036 61.133L299.749 60.755C299.977 59.879 300.427 59.204 301.099 58.73C301.777 58.25 302.647 58.01 303.709 58.01C304.597 58.01 305.35 58.178 305.968 58.514C306.592 58.85 307.033 59.33 307.291 59.954ZM302.854 67.127C303.454 67.127 303.988 67.019 304.456 66.803C304.924 66.581 305.299 66.278 305.581 65.894C305.869 65.504 306.055 65.063 306.139 64.571C306.223 64.199 306.265 63.683 306.265 63.023C306.031 63.047 305.863 63.068 305.761 63.086C304.945 63.182 304.282 63.269 303.772 63.347C303.262 63.419 302.8 63.512 302.386 63.626C301.264 63.956 300.703 64.544 300.703 65.39C300.703 65.69 300.775 65.972 300.919 66.236C301.069 66.5 301.306 66.716 301.63 66.884C301.954 67.046 302.362 67.127 302.854 67.127ZM313.954 68.27C312.994 68.27 312.172 68.054 311.488 67.622C310.81 67.19 310.291 66.587 309.931 65.813C309.577 65.039 309.394 64.148 309.382 63.14C309.394 62.114 309.58 61.217 309.94 60.449C310.3 59.675 310.822 59.075 311.506 58.649C312.19 58.223 313.009 58.01 313.963 58.01C314.611 58.01 315.211 58.118 315.763 58.334C316.315 58.55 316.786 58.862 317.176 59.27C317.566 59.672 317.851 60.149 318.031 60.701L316.735 61.115C316.507 60.539 316.144 60.089 315.646 59.765C315.154 59.441 314.59 59.279 313.954 59.279C312.916 59.279 312.13 59.627 311.596 60.323C311.068 61.019 310.798 61.958 310.786 63.14C310.798 64.334 311.074 65.276 311.614 65.966C312.154 66.656 312.934 67.001 313.954 67.001C314.614 67.001 315.175 66.851 315.637 66.551C316.105 66.245 316.459 65.801 316.699 65.219L318.031 65.615C317.665 66.479 317.134 67.139 316.438 67.595C315.742 68.045 314.914 68.27 313.954 68.27ZM319.889 55.04H321.221V62.96L325.559 58.28H327.323L322.769 63.14L327.917 68H325.991L321.221 63.32V68H319.88L319.889 55.04Z" fill="#0094FF"/>
<path d="M287.84 343L286.342 338.45H278.068L276.598 343H273.56L280.112 322.84H284.326L290.878 343H287.84ZM278.964 335.706H285.446L282.184 325.766L278.964 335.706ZM299.858 343.42C298.346 343.42 297.039 343.079 295.938 342.398C294.846 341.717 294.01 340.774 293.432 339.57C292.853 338.366 292.559 336.989 292.55 335.44C292.559 333.881 292.858 332.5 293.446 331.296C294.043 330.083 294.892 329.14 295.994 328.468C297.104 327.796 298.406 327.46 299.9 327.46C300.992 327.46 301.986 327.647 302.882 328.02C303.787 328.393 304.543 328.925 305.15 329.616C305.766 330.307 306.2 331.123 306.452 332.066L303.54 332.906C303.25 332.066 302.774 331.408 302.112 330.932C301.458 330.456 300.707 330.218 299.858 330.218C298.476 330.218 297.431 330.694 296.722 331.646C296.022 332.589 295.667 333.853 295.658 335.44C295.667 337.045 296.031 338.319 296.75 339.262C297.468 340.195 298.504 340.662 299.858 340.662C300.772 340.662 301.524 340.452 302.112 340.032C302.709 339.603 303.166 338.973 303.484 338.142L306.452 338.842C305.957 340.326 305.14 341.46 304.002 342.244C302.863 343.028 301.482 343.42 299.858 343.42ZM313.462 336.91V337.708C313.462 338.184 313.48 338.571 313.518 338.87C313.555 339.159 313.639 339.411 313.77 339.626C313.994 339.999 314.306 340.27 314.708 340.438C315.118 340.597 315.618 340.676 316.206 340.676C316.71 340.676 317.293 340.625 317.956 340.522V343C317.088 343.168 316.29 343.252 315.562 343.252C314.516 343.252 313.602 343.084 312.818 342.748C312.043 342.412 311.464 341.885 311.082 341.166C310.848 340.727 310.694 340.279 310.62 339.822C310.554 339.355 310.522 338.791 310.522 338.128V337.05V330.232H307.624V327.88H310.522V323.68H313.462V327.88H317.956V330.232H313.462V336.91ZM321.424 322.56H324.35V325.402H321.424V322.56ZM321.424 327.88H324.35V343H321.424V327.88ZM335.12 343.42C333.636 343.42 332.334 343.084 331.214 342.412C330.094 341.731 329.23 340.788 328.624 339.584C328.017 338.371 327.714 336.985 327.714 335.426C327.714 333.858 328.022 332.472 328.638 331.268C329.254 330.064 330.122 329.131 331.242 328.468C332.362 327.796 333.654 327.46 335.12 327.46C336.604 327.46 337.906 327.796 339.026 328.468C340.155 329.14 341.023 330.083 341.63 331.296C342.236 332.5 342.54 333.877 342.54 335.426C342.54 336.994 342.232 338.385 341.616 339.598C341.009 340.802 340.146 341.74 339.026 342.412C337.906 343.084 336.604 343.42 335.12 343.42ZM335.12 340.662C336.52 340.662 337.588 340.191 338.326 339.248C339.063 338.296 339.432 337.022 339.432 335.426C339.432 333.811 339.063 332.542 338.326 331.618C337.588 330.685 336.52 330.218 335.12 330.218C333.701 330.218 332.628 330.685 331.9 331.618C331.181 332.551 330.822 333.821 330.822 335.426C330.822 337.05 331.19 338.329 331.928 339.262C332.665 340.195 333.729 340.662 335.12 340.662ZM353.218 327.474C354.805 327.474 356.042 327.875 356.928 328.678C357.824 329.471 358.426 330.4 358.734 331.464C359.042 332.528 359.196 333.573 359.196 334.6V343H356.228V335.566C356.228 334.082 355.953 332.827 355.402 331.8C354.852 330.764 353.853 330.246 352.406 330.246C351.258 330.246 350.33 330.638 349.62 331.422C348.92 332.206 348.57 333.443 348.57 335.132V343H345.602V327.88H348.22V329.686C348.79 328.977 349.494 328.431 350.334 328.048C351.174 327.665 352.136 327.474 353.218 327.474ZM368.625 343.406C366.786 343.406 365.288 343 364.131 342.188C362.973 341.376 362.264 340.233 362.003 338.758L364.999 338.296C365.185 339.089 365.615 339.71 366.287 340.158C366.968 340.606 367.813 340.83 368.821 340.83C369.735 340.83 370.449 340.643 370.963 340.27C371.485 339.897 371.747 339.383 371.747 338.73C371.747 338.329 371.653 338.016 371.467 337.792C371.28 337.559 370.911 337.339 370.361 337.134C369.819 336.929 368.928 336.658 367.687 336.322C366.361 335.977 365.325 335.613 364.579 335.23C363.841 334.847 363.309 334.404 362.983 333.9C362.656 333.387 362.493 332.752 362.493 331.996C362.493 331.091 362.735 330.297 363.221 329.616C363.706 328.925 364.392 328.393 365.279 328.02C366.165 327.647 367.197 327.46 368.373 327.46C369.521 327.46 370.552 327.642 371.467 328.006C372.381 328.37 373.114 328.888 373.665 329.56C374.225 330.232 374.561 331.011 374.673 331.898L371.677 332.444C371.565 331.697 371.196 331.109 370.571 330.68C369.955 330.251 369.152 330.036 368.163 330.036C367.341 330.036 366.679 330.204 366.175 330.54C365.671 330.867 365.419 331.301 365.419 331.842C365.419 332.187 365.526 332.472 365.741 332.696C365.955 332.92 366.357 333.139 366.945 333.354C367.533 333.569 368.433 333.83 369.647 334.138C370.935 334.465 371.943 334.829 372.671 335.23C373.408 335.622 373.94 336.089 374.267 336.63C374.593 337.162 374.757 337.825 374.757 338.618C374.757 339.607 374.509 340.461 374.015 341.18C373.529 341.899 372.825 342.449 371.901 342.832C370.986 343.215 369.894 343.406 368.625 343.406Z" fill="#20232C"/>
<g filter="url(#filter2_d)">
<rect x="273" y="430" width="155" height="45" rx="8" fill="white"/>
<path d="M301.536 458L300.624 455.304H295.704L294.8 458H293.32L297.176 446.48H299.16L303.016 458H301.536ZM296.152 453.968H300.176L298.152 447.976L296.152 453.968ZM311.816 446.48V458H310.544V457.024C310.219 457.413 309.829 457.715 309.376 457.928C308.923 458.136 308.411 458.24 307.84 458.24C307.051 458.24 306.363 458.043 305.776 457.648C305.195 457.248 304.747 456.704 304.432 456.016C304.123 455.323 303.968 454.541 303.968 453.672C303.968 452.808 304.123 452.032 304.432 451.344C304.747 450.651 305.195 450.107 305.776 449.712C306.363 449.317 307.048 449.12 307.832 449.12C308.36 449.12 308.837 449.208 309.264 449.384C309.696 449.56 310.069 449.813 310.384 450.144V446.48H311.816ZM308.016 456.936C308.853 456.936 309.483 456.64 309.904 456.048C310.331 455.456 310.544 454.664 310.544 453.672C310.544 452.68 310.333 451.891 309.912 451.304C309.491 450.717 308.872 450.424 308.056 450.424C307.491 450.424 307.013 450.565 306.624 450.848C306.24 451.131 305.952 451.517 305.76 452.008C305.573 452.493 305.48 453.048 305.48 453.672C305.48 454.301 305.573 454.861 305.76 455.352C305.952 455.843 306.237 456.229 306.616 456.512C307 456.795 307.467 456.936 308.016 456.936ZM321.426 446.48V458H320.154V457.024C319.828 457.413 319.439 457.715 318.986 457.928C318.532 458.136 318.02 458.24 317.45 458.24C316.66 458.24 315.972 458.043 315.386 457.648C314.804 457.248 314.356 456.704 314.042 456.016C313.732 455.323 313.578 454.541 313.578 453.672C313.578 452.808 313.732 452.032 314.042 451.344C314.356 450.651 314.804 450.107 315.386 449.712C315.972 449.317 316.658 449.12 317.442 449.12C317.97 449.12 318.447 449.208 318.874 449.384C319.306 449.56 319.679 449.813 319.994 450.144V446.48H321.426ZM317.626 456.936C318.463 456.936 319.092 456.64 319.514 456.048C319.94 455.456 320.154 454.664 320.154 453.672C320.154 452.68 319.943 451.891 319.522 451.304C319.1 450.717 318.482 450.424 317.666 450.424C317.1 450.424 316.623 450.565 316.234 450.848C315.85 451.131 315.562 451.517 315.37 452.008C315.183 452.493 315.09 453.048 315.09 453.672C315.09 454.301 315.183 454.861 315.37 455.352C315.562 455.843 315.847 456.229 316.226 456.512C316.61 456.795 317.076 456.936 317.626 456.936ZM331.022 449.136C331.886 449.136 332.574 449.349 333.086 449.776C333.598 450.203 333.955 450.725 334.158 451.344C334.361 451.957 334.462 452.584 334.462 453.224V458H333.022V453.672C333.022 452.744 332.841 451.981 332.478 451.384C332.121 450.787 331.521 450.488 330.678 450.488C329.942 450.488 329.361 450.739 328.934 451.24C328.513 451.736 328.302 452.472 328.302 453.448V458H326.862V449.36H328.142V450.472C328.467 450.04 328.873 449.709 329.358 449.48C329.849 449.251 330.403 449.136 331.022 449.136ZM337.512 454.08C337.57 454.981 337.824 455.675 338.272 456.16C338.725 456.645 339.349 456.888 340.144 456.888C340.709 456.888 341.202 456.757 341.624 456.496C342.05 456.235 342.384 455.859 342.624 455.368L343.992 455.84C343.656 456.597 343.152 457.187 342.48 457.608C341.808 458.029 341.05 458.24 340.208 458.24C339.365 458.24 338.624 458.053 337.984 457.68C337.349 457.307 336.856 456.779 336.504 456.096C336.157 455.413 335.984 454.627 335.984 453.736C335.984 452.803 336.154 451.989 336.496 451.296C336.842 450.597 337.328 450.061 337.952 449.688C338.581 449.309 339.312 449.12 340.144 449.12C340.97 449.12 341.682 449.307 342.28 449.68C342.882 450.048 343.344 450.579 343.664 451.272C343.984 451.96 344.144 452.779 344.144 453.728C344.144 453.883 344.141 454 344.136 454.08H337.512ZM340.192 450.4C339.418 450.4 338.808 450.616 338.36 451.048C337.912 451.48 337.637 452.109 337.536 452.936H342.656C342.48 451.245 341.658 450.4 340.192 450.4ZM344.804 449.352L346.22 449.36L348.148 455.68L350.092 449.36H351.348L353.284 455.68L355.22 449.36H356.628L353.988 458H352.804L350.716 451.432L348.628 458H347.444L344.804 449.352ZM367.916 450.808C368.028 451.053 368.103 451.325 368.14 451.624C368.178 451.917 368.196 452.261 368.196 452.656V458H366.932V456.656C366.244 457.712 365.178 458.24 363.732 458.24C363.108 458.24 362.575 458.125 362.132 457.896C361.69 457.661 361.356 457.349 361.132 456.96C360.908 456.571 360.796 456.139 360.796 455.664C360.796 454.389 361.503 453.544 362.916 453.128C363.332 453.016 363.81 452.917 364.348 452.832C364.887 452.747 365.532 452.653 366.284 452.552L366.796 452.48C366.775 451.781 366.599 451.269 366.268 450.944C365.938 450.613 365.404 450.448 364.668 450.448C364.124 450.448 363.658 450.573 363.268 450.824C362.884 451.069 362.618 451.448 362.468 451.96L361.116 451.552C361.324 450.779 361.73 450.181 362.332 449.76C362.94 449.333 363.724 449.12 364.684 449.12C365.479 449.12 366.154 449.264 366.708 449.552C367.268 449.835 367.671 450.253 367.916 450.808ZM363.948 457.048C364.444 457.048 364.882 456.96 365.26 456.784C365.639 456.603 365.946 456.363 366.18 456.064C366.415 455.76 366.567 455.424 366.636 455.056C366.69 454.875 366.724 454.672 366.74 454.448C366.762 454.224 366.775 453.973 366.78 453.696L366.388 453.744C365.636 453.845 365.058 453.928 364.652 453.992C364.252 454.056 363.887 454.136 363.556 454.232C363.146 454.36 362.818 454.536 362.572 454.76C362.332 454.984 362.212 455.283 362.212 455.656C362.212 455.907 362.274 456.139 362.396 456.352C362.519 456.56 362.711 456.728 362.972 456.856C363.234 456.984 363.559 457.048 363.948 457.048ZM373.916 458.24C373.058 458.24 372.319 458.048 371.7 457.664C371.087 457.275 370.618 456.736 370.292 456.048C369.972 455.36 369.807 454.571 369.796 453.68C369.807 452.779 369.975 451.984 370.3 451.296C370.631 450.608 371.106 450.075 371.724 449.696C372.343 449.312 373.079 449.12 373.932 449.12C374.535 449.12 375.087 449.221 375.588 449.424C376.09 449.627 376.514 449.917 376.86 450.296C377.212 450.675 377.463 451.12 377.612 451.632L376.204 452.056C376.023 451.56 375.727 451.173 375.316 450.896C374.911 450.613 374.444 450.472 373.916 450.472C373.058 450.472 372.41 450.763 371.972 451.344C371.54 451.925 371.319 452.704 371.308 453.68C371.319 454.672 371.546 455.456 371.988 456.032C372.436 456.603 373.079 456.888 373.916 456.888C375.02 456.888 375.772 456.384 376.172 455.376L377.612 455.752C377.308 456.557 376.839 457.173 376.204 457.6C375.57 458.027 374.807 458.24 373.916 458.24ZM381.461 454.672V455.136C381.461 455.408 381.472 455.627 381.493 455.792C381.514 455.957 381.562 456.101 381.637 456.224C381.765 456.453 381.946 456.619 382.181 456.72C382.421 456.821 382.714 456.872 383.061 456.872C383.312 456.872 383.648 456.84 384.069 456.776V458C383.626 458.091 383.2 458.136 382.789 458.136C382.218 458.136 381.717 458.043 381.285 457.856C380.858 457.664 380.541 457.365 380.333 456.96C380.21 456.72 380.13 456.475 380.093 456.224C380.056 455.973 380.037 455.661 380.037 455.288V454.736V450.536H378.285V449.36H380.037V446.96H381.461V449.36H384.069V450.536H381.461V454.672ZM385.983 446.36H387.407V447.832H385.983V446.36ZM385.983 449.36H387.407V458H385.983V449.36ZM393.488 458.24C392.64 458.24 391.901 458.048 391.272 457.664C390.648 457.275 390.168 456.736 389.832 456.048C389.496 455.355 389.328 454.563 389.328 453.672C389.328 452.776 389.498 451.984 389.84 451.296C390.181 450.608 390.666 450.075 391.296 449.696C391.925 449.312 392.656 449.12 393.488 449.12C394.336 449.12 395.074 449.312 395.704 449.696C396.333 450.08 396.816 450.616 397.152 451.304C397.488 451.992 397.656 452.781 397.656 453.672C397.656 454.573 397.485 455.371 397.144 456.064C396.808 456.752 396.325 457.288 395.696 457.672C395.066 458.051 394.33 458.24 393.488 458.24ZM393.488 456.888C394.357 456.888 395.016 456.6 395.464 456.024C395.917 455.443 396.144 454.659 396.144 453.672C396.144 452.675 395.917 451.893 395.464 451.328C395.01 450.757 394.352 450.472 393.488 450.472C392.613 450.472 391.952 450.76 391.504 451.336C391.061 451.912 390.84 452.691 390.84 453.672C390.84 454.669 391.066 455.456 391.52 456.032C391.978 456.603 392.634 456.888 393.488 456.888ZM403.569 449.136C404.433 449.136 405.121 449.349 405.633 449.776C406.145 450.203 406.502 450.725 406.705 451.344C406.908 451.957 407.009 452.584 407.009 453.224V458H405.569V453.672C405.569 452.744 405.388 451.981 405.025 451.384C404.668 450.787 404.068 450.488 403.225 450.488C402.489 450.488 401.908 450.739 401.481 451.24C401.06 451.736 400.849 452.472 400.849 453.448V458H399.409V449.36H400.689V450.472C401.014 450.04 401.42 449.709 401.905 449.48C402.396 449.251 402.95 449.136 403.569 449.136Z" fill="#00C2FF"/>
<rect x="274" y="431" width="153" height="43" rx="7" stroke="#EFF1F7" stroke-width="2"/>
</g>
<path d="M274.26 372.04H275.592L282.729 382.66V372.04H284.061V385H282.729L275.592 374.371V385H274.26V372.04ZM290.641 385.27C289.693 385.27 288.871 385.054 288.175 384.622C287.485 384.184 286.957 383.578 286.591 382.804C286.225 382.03 286.042 381.139 286.042 380.131C286.042 379.117 286.228 378.223 286.6 377.449C286.972 376.675 287.503 376.075 288.193 375.649C288.889 375.223 289.705 375.01 290.641 375.01C291.595 375.01 292.417 375.226 293.107 375.658C293.803 376.09 294.334 376.693 294.7 377.467C295.066 378.241 295.249 379.129 295.249 380.131C295.249 381.151 295.063 382.048 294.691 382.822C294.325 383.596 293.794 384.199 293.098 384.631C292.408 385.057 291.589 385.27 290.641 385.27ZM290.641 384.001C291.343 384.001 291.934 383.842 292.414 383.524C292.894 383.2 293.251 382.75 293.485 382.174C293.725 381.592 293.845 380.911 293.845 380.131C293.845 378.931 293.572 377.989 293.026 377.305C292.486 376.621 291.691 376.279 290.641 376.279C289.585 376.279 288.787 376.627 288.247 377.323C287.713 378.013 287.446 378.949 287.446 380.131C287.446 380.917 287.566 381.601 287.806 382.183C288.052 382.765 288.412 383.215 288.886 383.533C289.366 383.845 289.951 384.001 290.641 384.001ZM308.209 376.954C308.401 377.422 308.497 378.091 308.497 378.961V385H307.318V383.389C306.94 384.007 306.436 384.475 305.806 384.793C305.176 385.111 304.447 385.27 303.619 385.27C302.911 385.27 302.305 385.141 301.801 384.883C301.303 384.625 300.928 384.277 300.676 383.839C300.424 383.401 300.298 382.918 300.298 382.39C300.298 381.634 300.517 381.025 300.955 380.563C301.393 380.101 301.999 379.768 302.773 379.564C303.247 379.45 303.775 379.348 304.357 379.258C304.945 379.168 305.623 379.072 306.391 378.97L307.201 378.862C307.189 377.968 306.979 377.311 306.571 376.891C306.169 376.471 305.515 376.261 304.609 376.261C303.925 376.261 303.355 376.414 302.899 376.72C302.449 377.026 302.134 377.497 301.954 378.133L300.667 377.755C300.895 376.879 301.345 376.204 302.017 375.73C302.695 375.25 303.565 375.01 304.627 375.01C305.515 375.01 306.268 375.178 306.886 375.514C307.51 375.85 307.951 376.33 308.209 376.954ZM303.772 384.127C304.372 384.127 304.906 384.019 305.374 383.803C305.842 383.581 306.217 383.278 306.499 382.894C306.787 382.504 306.973 382.063 307.057 381.571C307.141 381.199 307.183 380.683 307.183 380.023C306.949 380.047 306.781 380.068 306.679 380.086C305.863 380.182 305.2 380.269 304.69 380.347C304.18 380.419 303.718 380.512 303.304 380.626C302.182 380.956 301.621 381.544 301.621 382.39C301.621 382.69 301.693 382.972 301.837 383.236C301.987 383.5 302.224 383.716 302.548 383.884C302.872 384.046 303.28 384.127 303.772 384.127ZM314.872 385.27C313.912 385.27 313.09 385.054 312.406 384.622C311.728 384.19 311.209 383.587 310.849 382.813C310.495 382.039 310.312 381.148 310.3 380.14C310.312 379.114 310.498 378.217 310.858 377.449C311.218 376.675 311.74 376.075 312.424 375.649C313.108 375.223 313.927 375.01 314.881 375.01C315.529 375.01 316.129 375.118 316.681 375.334C317.233 375.55 317.704 375.862 318.094 376.27C318.484 376.672 318.769 377.149 318.949 377.701L317.653 378.115C317.425 377.539 317.062 377.089 316.564 376.765C316.072 376.441 315.508 376.279 314.872 376.279C313.834 376.279 313.048 376.627 312.514 377.323C311.986 378.019 311.716 378.958 311.704 380.14C311.716 381.334 311.992 382.276 312.532 382.966C313.072 383.656 313.852 384.001 314.872 384.001C315.532 384.001 316.093 383.851 316.555 383.551C317.023 383.245 317.377 382.801 317.617 382.219L318.949 382.615C318.583 383.479 318.052 384.139 317.356 384.595C316.66 385.045 315.832 385.27 314.872 385.27ZM323.12 381.427V381.958C323.12 382.258 323.132 382.501 323.156 382.687C323.18 382.867 323.234 383.029 323.318 383.173C323.462 383.449 323.669 383.647 323.939 383.767C324.209 383.887 324.548 383.947 324.956 383.947C325.298 383.947 325.679 383.911 326.099 383.839V385C325.619 385.096 325.172 385.144 324.758 385.144C324.14 385.144 323.6 385.039 323.138 384.829C322.676 384.619 322.334 384.289 322.112 383.839C321.986 383.581 321.902 383.317 321.86 383.047C321.824 382.777 321.806 382.441 321.806 382.039V381.481V376.414H319.727V375.28H321.806V372.58H323.12V375.28H326.099V376.414H323.12V381.427ZM328.194 371.95H329.517V373.435H328.194V371.95ZM328.194 375.28H329.517V385H328.194V375.28ZM336.274 385.27C335.326 385.27 334.504 385.054 333.808 384.622C333.118 384.184 332.59 383.578 332.224 382.804C331.858 382.03 331.675 381.139 331.675 380.131C331.675 379.117 331.861 378.223 332.233 377.449C332.605 376.675 333.136 376.075 333.826 375.649C334.522 375.223 335.338 375.01 336.274 375.01C337.228 375.01 338.05 375.226 338.74 375.658C339.436 376.09 339.967 376.693 340.333 377.467C340.699 378.241 340.882 379.129 340.882 380.131C340.882 381.151 340.696 382.048 340.324 382.822C339.958 383.596 339.427 384.199 338.731 384.631C338.041 385.057 337.222 385.27 336.274 385.27ZM336.274 384.001C336.976 384.001 337.567 383.842 338.047 383.524C338.527 383.2 338.884 382.75 339.118 382.174C339.358 381.592 339.478 380.911 339.478 380.131C339.478 378.931 339.205 377.989 338.659 377.305C338.119 376.621 337.324 376.279 336.274 376.279C335.218 376.279 334.42 376.627 333.88 377.323C333.346 378.013 333.079 378.949 333.079 380.131C333.079 380.917 333.199 381.601 333.439 382.183C333.685 382.765 334.045 383.215 334.519 383.533C334.999 383.845 335.584 384.001 336.274 384.001ZM347.322 375.037C348.24 375.037 348.99 375.259 349.572 375.703C350.154 376.147 350.574 376.72 350.832 377.422C351.09 378.118 351.219 378.862 351.219 379.654V385H349.887V380.041C349.887 378.895 349.659 377.986 349.203 377.314C348.747 376.636 348.036 376.297 347.07 376.297C346.146 376.297 345.435 376.606 344.937 377.224C344.439 377.842 344.19 378.706 344.19 379.816V385H342.858V375.28H344.055V376.63C344.415 376.108 344.874 375.712 345.432 375.442C345.99 375.172 346.62 375.037 347.322 375.037ZM357.182 385.261C356.426 385.261 355.754 385.15 355.166 384.928C354.578 384.706 354.098 384.388 353.726 383.974C353.36 383.554 353.123 383.053 353.015 382.471L354.365 382.246C354.503 382.804 354.83 383.245 355.346 383.569C355.862 383.893 356.498 384.055 357.254 384.055C357.992 384.055 358.574 383.902 359 383.596C359.426 383.284 359.639 382.861 359.639 382.327C359.639 382.015 359.567 381.769 359.423 381.589C359.285 381.403 359.021 381.232 358.631 381.076C358.241 380.92 357.617 380.725 356.759 380.491C355.865 380.251 355.172 380.011 354.68 379.771C354.188 379.525 353.837 379.249 353.627 378.943C353.417 378.631 353.312 378.244 353.312 377.782C353.312 377.236 353.465 376.753 353.771 376.333C354.083 375.913 354.518 375.589 355.076 375.361C355.634 375.127 356.276 375.01 357.002 375.01C357.728 375.01 358.382 375.13 358.964 375.37C359.546 375.604 360.014 375.937 360.368 376.369C360.722 376.795 360.932 377.287 360.998 377.845L359.648 378.088C359.552 377.506 359.258 377.05 358.766 376.72C358.274 376.384 357.65 376.216 356.894 376.216C356.456 376.216 356.066 376.279 355.724 376.405C355.388 376.531 355.124 376.708 354.932 376.936C354.746 377.164 354.653 377.425 354.653 377.719C354.653 377.989 354.731 378.214 354.887 378.394C355.049 378.568 355.328 378.736 355.724 378.898C356.126 379.054 356.717 379.231 357.497 379.429C358.409 379.663 359.114 379.906 359.612 380.158C360.116 380.404 360.476 380.698 360.692 381.04C360.908 381.376 361.016 381.799 361.016 382.309C361.016 382.915 360.863 383.44 360.557 383.884C360.251 384.328 359.81 384.67 359.234 384.91C358.658 385.144 357.974 385.261 357.182 385.261ZM374.76 372.04V385H373.572V383.641C373.212 384.157 372.762 384.559 372.222 384.847C371.688 385.129 371.076 385.27 370.386 385.27C369.498 385.27 368.727 385.048 368.073 384.604C367.425 384.16 366.93 383.548 366.588 382.768C366.246 381.988 366.075 381.109 366.075 380.131C366.075 379.159 366.246 378.286 366.588 377.512C366.93 376.732 367.422 376.12 368.064 375.676C368.712 375.232 369.468 375.01 370.332 375.01C370.992 375.01 371.58 375.133 372.096 375.379C372.618 375.625 373.062 375.973 373.428 376.423V372.04H374.76ZM370.521 384.037C371.193 384.037 371.757 383.872 372.213 383.542C372.669 383.206 373.008 382.747 373.23 382.165C373.458 381.577 373.572 380.899 373.572 380.131C373.572 379.357 373.458 378.679 373.23 378.097C373.008 377.509 372.669 377.053 372.213 376.729C371.763 376.405 371.208 376.243 370.548 376.243C369.876 376.243 369.309 376.411 368.847 376.747C368.385 377.083 368.04 377.545 367.812 378.133C367.59 378.715 367.479 379.381 367.479 380.131C367.479 380.881 367.593 381.553 367.821 382.147C368.055 382.735 368.4 383.197 368.856 383.533C369.312 383.869 369.867 384.037 370.521 384.037ZM378.158 380.509C378.212 381.625 378.515 382.486 379.067 383.092C379.619 383.698 380.378 384.001 381.344 384.001C382.034 384.001 382.64 383.842 383.162 383.524C383.684 383.2 384.095 382.735 384.395 382.129L385.628 382.606C385.244 383.452 384.68 384.109 383.936 384.577C383.192 385.039 382.346 385.27 381.398 385.27C380.462 385.27 379.643 385.06 378.941 384.64C378.239 384.22 377.696 383.629 377.312 382.867C376.934 382.099 376.745 381.205 376.745 380.185C376.745 379.135 376.931 378.22 377.303 377.44C377.681 376.66 378.215 376.06 378.905 375.64C379.601 375.22 380.414 375.01 381.344 375.01C382.274 375.01 383.072 375.22 383.738 375.64C384.41 376.054 384.923 376.654 385.277 377.44C385.637 378.22 385.817 379.15 385.817 380.23V380.509H378.158ZM381.38 376.225C380.45 376.225 379.709 376.498 379.157 377.044C378.611 377.59 378.287 378.376 378.185 379.402H384.431C384.335 378.352 384.029 377.56 383.513 377.026C382.997 376.492 382.286 376.225 381.38 376.225ZM391.604 372.886C391.094 372.886 390.716 373.012 390.47 373.264C390.224 373.51 390.101 373.894 390.101 374.416V375.28H392.756V376.414H390.101V385H388.778V376.414H387.095V375.28H388.778V374.56C388.778 374.11 388.817 373.717 388.895 373.381C388.979 373.045 389.141 372.745 389.381 372.481C389.645 372.193 389.951 372.004 390.299 371.914C390.647 371.818 391.052 371.77 391.514 371.77H392.756V372.886H391.604ZM394.646 371.95H395.969V373.435H394.646V371.95ZM394.646 375.28H395.969V385H394.646V375.28ZM403.115 375.037C404.033 375.037 404.783 375.259 405.365 375.703C405.947 376.147 406.367 376.72 406.625 377.422C406.883 378.118 407.012 378.862 407.012 379.654V385H405.68V380.041C405.68 378.895 405.452 377.986 404.996 377.314C404.54 376.636 403.829 376.297 402.863 376.297C401.939 376.297 401.228 376.606 400.73 377.224C400.232 377.842 399.983 378.706 399.983 379.816V385H398.651V375.28H399.848V376.63C400.208 376.108 400.667 375.712 401.225 375.442C401.783 375.172 402.413 375.037 403.115 375.037ZM410.151 380.509C410.205 381.625 410.508 382.486 411.06 383.092C411.612 383.698 412.371 384.001 413.337 384.001C414.027 384.001 414.633 383.842 415.155 383.524C415.677 383.2 416.088 382.735 416.388 382.129L417.621 382.606C417.237 383.452 416.673 384.109 415.929 384.577C415.185 385.039 414.339 385.27 413.391 385.27C412.455 385.27 411.636 385.06 410.934 384.64C410.232 384.22 409.689 383.629 409.305 382.867C408.927 382.099 408.738 381.205 408.738 380.185C408.738 379.135 408.924 378.22 409.296 377.44C409.674 376.66 410.208 376.06 410.898 375.64C411.594 375.22 412.407 375.01 413.337 375.01C414.267 375.01 415.065 375.22 415.731 375.64C416.403 376.054 416.916 376.654 417.27 377.44C417.63 378.22 417.81 379.15 417.81 380.23V380.509H410.151ZM413.373 376.225C412.443 376.225 411.702 376.498 411.15 377.044C410.604 377.59 410.28 378.376 410.178 379.402H416.424C416.328 378.352 416.022 377.56 415.506 377.026C414.99 376.492 414.279 376.225 413.373 376.225ZM427.952 372.04V385H426.764V383.641C426.404 384.157 425.954 384.559 425.414 384.847C424.88 385.129 424.268 385.27 423.578 385.27C422.69 385.27 421.919 385.048 421.265 384.604C420.617 384.16 420.122 383.548 419.78 382.768C419.438 381.988 419.267 381.109 419.267 380.131C419.267 379.159 419.438 378.286 419.78 377.512C420.122 376.732 420.614 376.12 421.256 375.676C421.904 375.232 422.66 375.01 423.524 375.01C424.184 375.01 424.772 375.133 425.288 375.379C425.81 375.625 426.254 375.973 426.62 376.423V372.04H427.952ZM423.713 384.037C424.385 384.037 424.949 383.872 425.405 383.542C425.861 383.206 426.2 382.747 426.422 382.165C426.65 381.577 426.764 380.899 426.764 380.131C426.764 379.357 426.65 378.679 426.422 378.097C426.2 377.509 425.861 377.053 425.405 376.729C424.955 376.405 424.4 376.243 423.74 376.243C423.068 376.243 422.501 376.411 422.039 376.747C421.577 377.083 421.232 377.545 421.004 378.133C420.782 378.715 420.671 379.381 420.671 380.131C420.671 380.881 420.785 381.553 421.013 382.147C421.247 382.735 421.592 383.197 422.048 383.533C422.504 383.869 423.059 384.037 423.713 384.037ZM440.659 375.28H442.009L436.789 389.32H435.466L437.068 384.973L433.117 375.28H434.521L437.716 383.272L440.659 375.28ZM444.094 380.509C444.148 381.625 444.451 382.486 445.003 383.092C445.555 383.698 446.314 384.001 447.28 384.001C447.97 384.001 448.576 383.842 449.098 383.524C449.62 383.2 450.031 382.735 450.331 382.129L451.564 382.606C451.18 383.452 450.616 384.109 449.872 384.577C449.128 385.039 448.282 385.27 447.334 385.27C446.398 385.27 445.579 385.06 444.877 384.64C444.175 384.22 443.632 383.629 443.248 382.867C442.87 382.099 442.681 381.205 442.681 380.185C442.681 379.135 442.867 378.22 443.239 377.44C443.617 376.66 444.151 376.06 444.841 375.64C445.537 375.22 446.35 375.01 447.28 375.01C448.21 375.01 449.008 375.22 449.674 375.64C450.346 376.054 450.859 376.654 451.213 377.44C451.573 378.22 451.753 379.15 451.753 380.23V380.509H444.094ZM447.316 376.225C446.386 376.225 445.645 376.498 445.093 377.044C444.547 377.59 444.223 378.376 444.121 379.402H450.367C450.271 378.352 449.965 377.56 449.449 377.026C448.933 376.492 448.222 376.225 447.316 376.225ZM456.063 381.427V381.958C456.063 382.258 456.075 382.501 456.099 382.687C456.123 382.867 456.177 383.029 456.261 383.173C456.405 383.449 456.612 383.647 456.882 383.767C457.152 383.887 457.491 383.947 457.899 383.947C458.241 383.947 458.622 383.911 459.042 383.839V385C458.562 385.096 458.115 385.144 457.701 385.144C457.083 385.144 456.543 385.039 456.081 384.829C455.619 384.619 455.277 384.289 455.055 383.839C454.929 383.581 454.845 383.317 454.803 383.047C454.767 382.777 454.749 382.441 454.749 382.039V381.481V376.414H452.67V375.28H454.749V372.58H456.063V375.28H459.042V376.414H456.063V381.427Z" fill="#7483AB"/>
<g opacity="0.6">
<rect x="274.5" y="491" width="178" height="45" rx="8" fill="#D2D9EE"/>
<path d="M299.708 519.24C298.897 519.24 298.164 519.101 297.508 518.824C296.852 518.547 296.311 518.149 295.884 517.632C295.463 517.115 295.188 516.507 295.06 515.808L296.532 515.576C296.655 516.056 296.868 516.469 297.172 516.816C297.481 517.163 297.86 517.429 298.308 517.616C298.756 517.797 299.247 517.888 299.78 517.888C300.297 517.888 300.767 517.805 301.188 517.64C301.609 517.475 301.94 517.24 302.18 516.936C302.425 516.632 302.548 516.275 302.548 515.864C302.548 515.405 302.401 515.045 302.108 514.784C301.815 514.523 301.425 514.32 300.94 514.176L298.004 513.304C297.257 513.085 296.655 512.755 296.196 512.312C295.737 511.869 295.508 511.259 295.508 510.48C295.508 509.813 295.681 509.237 296.028 508.752C296.38 508.261 296.86 507.888 297.468 507.632C298.081 507.371 298.772 507.243 299.54 507.248C300.308 507.253 300.999 507.392 301.612 507.664C302.231 507.931 302.74 508.317 303.14 508.824C303.54 509.325 303.809 509.923 303.948 510.616L302.436 510.88C302.356 510.421 302.177 510.019 301.9 509.672C301.623 509.325 301.273 509.061 300.852 508.88C300.436 508.693 299.98 508.6 299.484 508.6C299.02 508.6 298.599 508.68 298.22 508.84C297.847 508.995 297.551 509.211 297.332 509.488C297.119 509.76 297.012 510.069 297.012 510.416C297.012 510.747 297.105 511.021 297.292 511.24C297.479 511.459 297.705 511.629 297.972 511.752C298.244 511.875 298.564 511.987 298.932 512.088L301.124 512.72C301.62 512.859 302.068 513.027 302.468 513.224C302.873 513.416 303.233 513.723 303.548 514.144C303.863 514.56 304.02 515.107 304.02 515.784C304.02 516.504 303.831 517.125 303.452 517.648C303.073 518.171 302.556 518.568 301.9 518.84C301.249 519.107 300.519 519.24 299.708 519.24ZM309.338 519.24C308.479 519.24 307.741 519.048 307.122 518.664C306.509 518.275 306.039 517.736 305.714 517.048C305.394 516.36 305.229 515.571 305.218 514.68C305.229 513.779 305.397 512.984 305.722 512.296C306.053 511.608 306.527 511.075 307.146 510.696C307.765 510.312 308.501 510.12 309.354 510.12C309.957 510.12 310.509 510.221 311.01 510.424C311.511 510.627 311.935 510.917 312.282 511.296C312.634 511.675 312.885 512.12 313.034 512.632L311.626 513.056C311.445 512.56 311.149 512.173 310.738 511.896C310.333 511.613 309.866 511.472 309.338 511.472C308.479 511.472 307.831 511.763 307.394 512.344C306.962 512.925 306.741 513.704 306.73 514.68C306.741 515.672 306.967 516.456 307.41 517.032C307.858 517.603 308.501 517.888 309.338 517.888C310.442 517.888 311.194 517.384 311.594 516.376L313.034 516.752C312.73 517.557 312.261 518.173 311.626 518.6C310.991 519.027 310.229 519.24 309.338 519.24ZM318.819 510.136C319.683 510.136 320.371 510.349 320.883 510.776C321.395 511.203 321.752 511.725 321.955 512.344C322.158 512.957 322.259 513.584 322.259 514.224V519H320.819V514.672C320.819 513.744 320.638 512.981 320.275 512.384C319.918 511.787 319.318 511.488 318.475 511.488C317.739 511.488 317.158 511.739 316.731 512.24C316.31 512.736 316.099 513.472 316.099 514.448V519H314.659V507.48H315.939V511.472C316.264 511.04 316.67 510.709 317.155 510.48C317.646 510.251 318.2 510.136 318.819 510.136ZM325.387 515.08C325.445 515.981 325.699 516.675 326.147 517.16C326.6 517.645 327.224 517.888 328.019 517.888C328.584 517.888 329.077 517.757 329.499 517.496C329.925 517.235 330.259 516.859 330.499 516.368L331.867 516.84C331.531 517.597 331.027 518.187 330.355 518.608C329.683 519.029 328.925 519.24 328.083 519.24C327.24 519.24 326.499 519.053 325.859 518.68C325.224 518.307 324.731 517.779 324.379 517.096C324.032 516.413 323.859 515.627 323.859 514.736C323.859 513.803 324.029 512.989 324.371 512.296C324.717 511.597 325.203 511.061 325.827 510.688C326.456 510.309 327.187 510.12 328.019 510.12C328.845 510.12 329.557 510.307 330.155 510.68C330.757 511.048 331.219 511.579 331.539 512.272C331.859 512.96 332.019 513.779 332.019 514.728C332.019 514.883 332.016 515 332.011 515.08H325.387ZM328.067 511.4C327.293 511.4 326.683 511.616 326.235 512.048C325.787 512.48 325.512 513.109 325.411 513.936H330.531C330.355 512.245 329.533 511.4 328.067 511.4ZM341.16 507.48V519H339.888V518.024C339.563 518.413 339.173 518.715 338.72 518.928C338.267 519.136 337.755 519.24 337.184 519.24C336.395 519.24 335.707 519.043 335.12 518.648C334.539 518.248 334.091 517.704 333.776 517.016C333.467 516.323 333.312 515.541 333.312 514.672C333.312 513.808 333.467 513.032 333.776 512.344C334.091 511.651 334.539 511.107 335.12 510.712C335.707 510.317 336.392 510.12 337.176 510.12C337.704 510.12 338.181 510.208 338.608 510.384C339.04 510.56 339.413 510.813 339.728 511.144V507.48H341.16ZM337.36 517.936C338.197 517.936 338.827 517.64 339.248 517.048C339.675 516.456 339.888 515.664 339.888 514.672C339.888 513.68 339.677 512.891 339.256 512.304C338.835 511.717 338.216 511.424 337.4 511.424C336.835 511.424 336.357 511.565 335.968 511.848C335.584 512.131 335.296 512.517 335.104 513.008C334.917 513.493 334.824 514.048 334.824 514.672C334.824 515.301 334.917 515.861 335.104 516.352C335.296 516.843 335.581 517.229 335.96 517.512C336.344 517.795 336.811 517.936 337.36 517.936ZM350.833 510.36V519H349.561V517.888C349.236 518.32 348.828 518.651 348.337 518.88C347.852 519.109 347.3 519.224 346.681 519.224C345.817 519.224 345.129 519.011 344.617 518.584C344.105 518.157 343.748 517.637 343.545 517.024C343.343 516.405 343.241 515.776 343.241 515.136V510.36H344.681V514.688C344.681 515.616 344.86 516.379 345.217 516.976C345.58 517.573 346.183 517.872 347.025 517.872C347.761 517.872 348.34 517.624 348.761 517.128C349.188 516.627 349.401 515.888 349.401 514.912V510.36H350.833ZM353.233 507.24H354.657V519H353.233V507.24ZM358.106 515.08C358.164 515.981 358.418 516.675 358.866 517.16C359.319 517.645 359.943 517.888 360.738 517.888C361.303 517.888 361.796 517.757 362.218 517.496C362.644 517.235 362.978 516.859 363.218 516.368L364.586 516.84C364.25 517.597 363.746 518.187 363.074 518.608C362.402 519.029 361.644 519.24 360.802 519.24C359.959 519.24 359.218 519.053 358.578 518.68C357.943 518.307 357.45 517.779 357.098 517.096C356.751 516.413 356.578 515.627 356.578 514.736C356.578 513.803 356.748 512.989 357.09 512.296C357.436 511.597 357.922 511.061 358.546 510.688C359.175 510.309 359.906 510.12 360.738 510.12C361.564 510.12 362.276 510.307 362.874 510.68C363.476 511.048 363.938 511.579 364.258 512.272C364.578 512.96 364.738 513.779 364.738 514.728C364.738 514.883 364.735 515 364.73 515.08H358.106ZM360.786 511.4C360.012 511.4 359.402 511.616 358.954 512.048C358.506 512.48 358.231 513.109 358.13 513.936H363.25C363.074 512.245 362.252 511.4 360.786 511.4ZM374.074 507.48L371.002 519H369.554L372.626 507.48H374.074ZM383.442 519.24C382.632 519.24 381.898 519.101 381.242 518.824C380.586 518.547 380.045 518.149 379.618 517.632C379.197 517.115 378.922 516.507 378.794 515.808L380.266 515.576C380.389 516.056 380.602 516.469 380.906 516.816C381.216 517.163 381.594 517.429 382.042 517.616C382.49 517.797 382.981 517.888 383.514 517.888C384.032 517.888 384.501 517.805 384.922 517.64C385.344 517.475 385.674 517.24 385.914 516.936C386.16 516.632 386.282 516.275 386.282 515.864C386.282 515.405 386.136 515.045 385.842 514.784C385.549 514.523 385.16 514.32 384.674 514.176L381.738 513.304C380.992 513.085 380.389 512.755 379.93 512.312C379.472 511.869 379.242 511.259 379.242 510.48C379.242 509.813 379.416 509.237 379.762 508.752C380.114 508.261 380.594 507.888 381.202 507.632C381.816 507.371 382.506 507.243 383.274 507.248C384.042 507.253 384.733 507.392 385.346 507.664C385.965 507.931 386.474 508.317 386.874 508.824C387.274 509.325 387.544 509.923 387.682 510.616L386.17 510.88C386.09 510.421 385.912 510.019 385.634 509.672C385.357 509.325 385.008 509.061 384.586 508.88C384.17 508.693 383.714 508.6 383.218 508.6C382.754 508.6 382.333 508.68 381.954 508.84C381.581 508.995 381.285 509.211 381.066 509.488C380.853 509.76 380.746 510.069 380.746 510.416C380.746 510.747 380.84 511.021 381.026 511.24C381.213 511.459 381.44 511.629 381.706 511.752C381.978 511.875 382.298 511.987 382.666 512.088L384.858 512.72C385.354 512.859 385.802 513.027 386.202 513.224C386.608 513.416 386.968 513.723 387.282 514.144C387.597 514.56 387.754 515.107 387.754 515.784C387.754 516.504 387.565 517.125 387.186 517.648C386.808 518.171 386.29 518.568 385.634 518.84C384.984 519.107 384.253 519.24 383.442 519.24ZM396.865 510.36V519H395.593V517.888C395.267 518.32 394.859 518.651 394.369 518.88C393.883 519.109 393.331 519.224 392.713 519.224C391.849 519.224 391.161 519.011 390.649 518.584C390.137 518.157 389.779 517.637 389.577 517.024C389.374 516.405 389.273 515.776 389.273 515.136V510.36H390.713V514.688C390.713 515.616 390.891 516.379 391.249 516.976C391.611 517.573 392.214 517.872 393.057 517.872C393.793 517.872 394.371 517.624 394.793 517.128C395.219 516.627 395.433 515.888 395.433 514.912V510.36H396.865ZM403.08 510.12C403.864 510.12 404.547 510.317 405.128 510.712C405.715 511.107 406.163 511.651 406.472 512.344C406.787 513.032 406.944 513.808 406.944 514.672C406.944 515.541 406.787 516.323 406.472 517.016C406.163 517.704 405.715 518.248 405.128 518.648C404.547 519.043 403.862 519.24 403.072 519.24C402.502 519.24 401.99 519.136 401.536 518.928C401.083 518.715 400.694 518.413 400.368 518.024V519H399.096V507.48H400.528V511.144C400.843 510.813 401.214 510.56 401.64 510.384C402.072 510.208 402.552 510.12 403.08 510.12ZM402.896 517.936C403.446 517.936 403.91 517.795 404.288 517.512C404.672 517.229 404.958 516.843 405.144 516.352C405.336 515.861 405.432 515.301 405.432 514.672C405.432 514.048 405.336 513.493 405.144 513.008C404.958 512.517 404.67 512.131 404.28 511.848C403.896 511.565 403.422 511.424 402.856 511.424C402.04 511.424 401.422 511.717 401 512.304C400.579 512.891 400.368 513.68 400.368 514.672C400.368 515.664 400.579 516.456 401 517.048C401.427 517.64 402.059 517.936 402.896 517.936ZM417.554 510.136C418.146 510.136 418.661 510.261 419.098 510.512C419.535 510.757 419.871 511.109 420.106 511.568C420.341 512.021 420.458 512.552 420.458 513.16L420.45 519H419.026L419.034 513.472C419.034 513.051 418.954 512.685 418.794 512.376C418.639 512.061 418.421 511.821 418.138 511.656C417.861 511.491 417.541 511.408 417.178 511.408C416.842 511.408 416.53 511.485 416.242 511.64C415.954 511.795 415.722 512.029 415.546 512.344C415.375 512.659 415.29 513.048 415.29 513.512L415.282 519H413.866L413.874 513.528C413.874 513.096 413.797 512.72 413.642 512.4C413.487 512.08 413.269 511.835 412.986 511.664C412.703 511.493 412.375 511.408 412.002 511.408C411.629 511.408 411.301 511.496 411.018 511.672C410.735 511.848 410.514 512.096 410.354 512.416C410.199 512.731 410.122 513.096 410.122 513.512V519H408.69V510.36H409.962V511.28C410.239 510.923 410.591 510.643 411.018 510.44C411.445 510.237 411.911 510.136 412.418 510.136C412.999 510.136 413.506 510.261 413.938 510.512C414.37 510.757 414.703 511.107 414.938 511.56C415.194 511.112 415.551 510.763 416.01 510.512C416.474 510.261 416.989 510.136 417.554 510.136ZM422.702 507.36H424.126V508.832H422.702V507.36ZM422.702 510.36H424.126V519H422.702V510.36ZM428.742 515.672V516.136C428.742 516.408 428.753 516.627 428.774 516.792C428.796 516.957 428.844 517.101 428.918 517.224C429.046 517.453 429.228 517.619 429.462 517.72C429.702 517.821 429.996 517.872 430.342 517.872C430.593 517.872 430.929 517.84 431.35 517.776V519C430.908 519.091 430.481 519.136 430.07 519.136C429.5 519.136 428.998 519.043 428.566 518.856C428.14 518.664 427.822 518.365 427.614 517.96C427.492 517.72 427.412 517.475 427.374 517.224C427.337 516.973 427.318 516.661 427.318 516.288V515.736V511.536H425.566V510.36H427.318V507.96H428.742V510.36H431.35V511.536H428.742V515.672Z" fill="white"/>
</g>
<defs>
<filter id="filter0_d" x="381" y="160" width="22" height="22" filterUnits="userSpaceOnUse" color-interpolation-filters="sRGB">
<feFlood flood-opacity="0" result="BackgroundImageFix"/>
<feColorMatrix in="SourceAlpha" type="matrix" values="0 0 0 0 0 0 0 0 0 0 0 0 0 0 0 0 0 0 127 0"/>
<feOffset dy="3"/>
<feGaussianBlur stdDeviation="1.5"/>
<feColorMatrix type="matrix" values="0 0 0 0 0.705882 0 0 0 0 0.756863 0 0 0 0 0.894118 0 0 0 0.35 0"/>
<feBlend mode="normal" in2="BackgroundImageFix" result="effect1_dropShadow"/>
<feBlend mode="normal" in="SourceGraphic" in2="effect1_dropShadow" result="shape"/>
</filter>
<filter id="filter1_i" x="273" y="193" width="862" height="106" filterUnits="userSpaceOnUse" color-interpolation-filters="sRGB">
<feFlood flood-opacity="0" result="BackgroundImageFix"/>
<feBlend mode="normal" in="SourceGraphic" in2="BackgroundImageFix" result="shape"/>
<feColorMatrix in="SourceAlpha" type="matrix" values="0 0 0 0 0 0 0 0 0 0 0 0 0 0 0 0 0 0 127 0" result="hardAlpha"/>
<feOffset dy="2"/>
<feGaussianBlur stdDeviation="1.5"/>
<feComposite in2="hardAlpha" operator="arithmetic" k2="-1" k3="1"/>
<feColorMatrix type="matrix" values="0 0 0 0 0.705882 0 0 0 0 0.756863 0 0 0 0 0.894118 0 0 0 0.35 0"/>
<feBlend mode="normal" in2="shape" result="effect1_innerShadow"/>
</filter>
<filter id="filter2_d" x="270" y="430" width="161" height="51" filterUnits="userSpaceOnUse" color-interpolation-filters="sRGB">
<feFlood flood-opacity="0" result="BackgroundImageFix"/>
<feColorMatrix in="SourceAlpha" type="matrix" values="0 0 0 0 0 0 0 0 0 0 0 0 0 0 0 0 0 0 127 0"/>
<feOffset dy="3"/>
<feGaussianBlur stdDeviation="1.5"/>
<feColorMatrix type="matrix" values="0 0 0 0 0.705882 0 0 0 0 0.756863 0 0 0 0 0.894118 0 0 0 0.35 0"/>
<feBlend mode="normal" in2="BackgroundImageFix" result="effect1_dropShadow"/>
<feBlend mode="normal" in="SourceGraphic" in2="effect1_dropShadow" result="shape"/>
</filter>
</defs>
</svg>
